<svg width="105" height="23" viewBox="0 0 105 23" xmlns="http://www.w3.org/2000/svg">
    <defs>
        <linearGradient x1="-5.308%" y1="6.418%" x2="108.482%" y2="100.766%" id="63neev7zoa">
            <stop stop-color="#327051" offset="0%"/>
            <stop stop-color="#428260" offset="11%"/>
            <stop stop-color="#5B9F78" offset="33%"/>
            <stop stop-color="#65AA81" offset="45%"/>
            <stop stop-color="#529570" offset="57%"/>
            <stop stop-color="#3B7A59" offset="76%"/>
            <stop stop-color="#327051" offset="87%"/>
        </linearGradient>
        <linearGradient x1="118.987%" y1="69.861%" x2="-6.65%" y2="34.499%" id="ayaj7q4grb">
            <stop stop-color="#65AA81" offset="0%"/>
            <stop stop-color="#4D956F" offset="38%"/>
            <stop stop-color="#3A8461" offset="74%"/>
        </linearGradient>
        <linearGradient x1=".036%" y1="50%" x2="100%" y2="50%" id="uqvki0jzcc">
            <stop stop-color="#64BA80" offset="0%"/>
            <stop stop-color="#65BA80" offset="2%"/>
            <stop stop-color="#88C378" offset="66%"/>
            <stop stop-color="#95C675" offset="100%"/>
            <stop stop-color="#72B67F" offset="100%"/>
            <stop stop-color="#61AF84" offset="100%"/>
        </linearGradient>
    </defs>
    <g fill="none" fill-rule="evenodd">
        <g fill-rule="nonzero">
            <path d="M12.851 9.69a6.069 6.069 0 0 0-1.76-1.512 12.468 12.468 0 0 0-2.24-.996 42.415 42.415 0 0 1-2.17-.793c-.596-.237-1.212-.482-1.593-.836a.882.882 0 0 1-.324-.712c.008-.311.155-.602.4-.79a.505.505 0 0 1 .28-.102h6.976V.01H5.39c-1.168 0-2.3.41-3.206 1.16A4.859 4.859 0 0 0 .797 2.776 4.36 4.36 0 0 0 .293 4.85c0 .984.249 1.801.74 2.429A6.046 6.046 0 0 0 2.8 8.79c.71.405 1.462.731 2.24.974.783.247 1.514.5 2.172.746.57.204 1.11.484 1.608.832.38.275.56.596.56.985 0 .243-.16.494-.44.688a.85.85 0 0 1-.464.156H1.021l-.93 3.577-.091.357h8.468a5.016 5.016 0 0 0 3.301-1.25 4.87 4.87 0 0 0 1.26-1.45c.39-.72.586-1.533.57-2.356-.007-.938-.256-1.732-.748-2.36z" fill="url(#63neev7zoa)" transform="translate(1.554 2.084)"/>
            <path d="M13.02 10.482a4.87 4.87 0 0 1-1.26 1.45 5.016 5.016 0 0 1-3.3 1.25H1.017L.09 16.749 0 17.106h8.468a5.016 5.016 0 0 0 3.301-1.25 4.87 4.87 0 0 0 1.26-1.45c.39-.72.586-1.533.57-2.356a3.956 3.956 0 0 0-.42-1.863c-.055.1-.104.201-.158.295z" fill="url(#ayaj7q4grb)" transform="translate(1.554 2.084)"/>
            <path d="M2.54 5.097A5.033 5.033 0 0 1 5.362 3.96a.615.615 0 0 1 .072-.01H12.412V0H5.38C4.212 0 3.08.41 2.174 1.16a4.859 4.859 0 0 0-1.39 1.61A4.361 4.361 0 0 0 .28 4.839c0 .93.225 1.708.662 2.32.06-.156.13-.308.207-.456a4.859 4.859 0 0 1 1.39-1.605z" fill="url(#uqvki0jzcc)" transform="translate(1.554 2.084)"/>
        </g>
        <path d="M19.835 18.826c1.266 0 2.374-.645 3.343-1.49h.08l.197 1.208h2.374v-6.581c0-3.26-1.444-4.971-4.253-4.971-1.74 0-3.323.664-4.629 1.49l1.049 1.951c1.028-.603 2.017-1.066 3.046-1.066 1.365 0 1.84.845 1.9 1.952-4.472.483-6.39 1.75-6.39 4.166 0 1.912 1.305 3.34 3.283 3.34zm.95-2.315c-.85 0-1.464-.382-1.464-1.268 0-1.006.91-1.77 3.62-2.113v2.274c-.712.705-1.325 1.107-2.156 1.107zm9.964 2.315c.693 0 1.167-.121 1.504-.262l-.356-2.194c-.198.04-.277.04-.396.04-.277 0-.574-.22-.574-.905V2.484H28.02v12.9c0 2.093.713 3.442 2.73 3.442zm7.551 0c1.365 0 2.77-.483 3.858-1.248l-.99-1.811c-.79.503-1.582.784-2.492.784-1.642 0-2.829-.966-3.066-2.817h6.825c.079-.262.138-.805.138-1.369 0-3.099-1.582-5.373-4.629-5.373-2.63 0-5.163 2.274-5.163 5.917 0 3.723 2.413 5.917 5.52 5.917zm1.78-7.064h-4.51c.218-1.63 1.247-2.476 2.414-2.476 1.424 0 2.097.966 2.097 2.476zm7.275 7.064c2.888 0 4.41-1.59 4.41-3.563 0-2.093-1.621-2.837-3.085-3.4-1.167-.444-2.196-.745-2.196-1.57 0-.644.475-1.087 1.484-1.087.81 0 1.582.382 2.374.966l1.305-1.791c-.91-.705-2.156-1.389-3.758-1.389-2.532 0-4.135 1.429-4.135 3.441 0 1.892 1.563 2.758 2.968 3.3 1.167.464 2.314.846 2.314 1.691 0 .705-.495 1.188-1.602 1.188-1.029 0-1.978-.443-2.968-1.228l-1.325 1.852c1.108.925 2.73 1.59 4.214 1.59zM78.465 7.735c1.332 0 2.432.26 3.297.781.866.52 1.502 1.219 1.908 2.095.407.877.61 1.87.61 2.98 0 1.111-.223 2.112-.668 3.002a5.026 5.026 0 0 1-1.994 2.116c-.884.52-1.956.78-3.217.78-1.212 0-2.254-.258-3.127-.775a5.048 5.048 0 0 1-1.983-2.116c-.45-.894-.674-1.896-.674-3.006 0-1.083.22-2.068.658-2.955a5.015 5.015 0 0 1 1.972-2.116c.877-.524 1.95-.786 3.218-.786zm.042 2.337c-.883 0-1.56.305-2.03.916-.471.611-.706 1.48-.706 2.604 0 .747.109 1.388.326 1.922.217.534.52.941.909 1.22.388.28.842.42 1.362.42.891 0 1.575-.308 2.053-.922.477-.615.716-1.495.716-2.64 0-1.132-.224-2.001-.673-2.609-.45-.608-1.101-.911-1.957-.911zM95.097 19.363l3.036-4.993 3.035 4.993h3.89l-4.782-7.147 4.444-7.228h-3.75L98.232 9.82l-2.837-4.832h-3.75l4.424 6.986-4.702 7.39z" fill="#344C51"/>
        <path d="M91.602 7.715c.192 0 .38.017.561.052.145.028.26.06.344.097l.057.029-.086 2.545-.07-.01-.112-.021a5.647 5.647 0 0 0-1.026-.115c-.74 0-1.32.295-1.737.885-.387.548-.594 1.32-.622 2.317l-.003.234v5.552h-3.004v-8.664l-.001-.372a49.017 49.017 0 0 0-.014-.784l-.017-.57-.023-.53-.018-.277-.012-.128h2.864l.02.11.02.162.02.213.031.416.03.485.018.49v.094h.043l.085-.194c.197-.439.386-.79.567-1.053.207-.3.474-.536.802-.707.328-.17.755-.256 1.283-.256zM52.571 4.988h3.196l2.139 9.346.164.741.229 1.06.109.532.032.16.139-.682.304-1.403.189-.891.223-1.006 1.796-7.857h3.656l1.838 7.857.116.543.126.631.234 1.249.155.867.128.691.13-.603.244-1.1.167-.727.248-1.02.045-.175 1.817-8.213h3.196L69.364 19.75h-3.88l-2.027-8.805-.1-.458-.102-.496-.272-1.388-.096-.523-.14.702-.523 2.43-1.967 8.538h-3.88z" fill="#344C51"/>
    </g>
</svg>
