<svg width="24" height="24" xmlns="http://www.w3.org/2000/svg">
    <g stroke="#333" stroke-width="1.8" fill="none" fill-rule="evenodd" stroke-linecap="round" stroke-linejoin="round">
        <path d="M19.18 10.801 21 9.395l-2.22-3.788-2.136.844a7.293 7.293 0 0 0-2.102-1.192L14.214 3H9.786l-.328 2.26a7.32 7.32 0 0 0-2.103 1.19l-2.136-.847L3 9.395l1.82 1.406c-.067.391-.067 2.007 0 2.397L3 14.604l2.217 3.793 2.138-.848a7.296 7.296 0 0 0 2.103 1.191L9.786 21h4.428l.328-2.26a7.29 7.29 0 0 0 2.102-1.19l2.137.846L21 14.602l-1.82-1.404c.066-.39.066-2.006 0-2.397z"/>
        <path d="M14.5 12a2.5 2.5 0 1 1-5 0 2.5 2.5 0 0 1 5 0z"/>
    </g>
</svg>
