<svg width="60" height="60" xmlns="http://www.w3.org/2000/svg">
    <defs>
        <linearGradient x1="8.392%" y1="33.192%" x2="91.823%" y2="51.934%" id="a">
            <stop stop-color="#055CDE" offset="0%"/>
            <stop stop-color="#3E8AFA" offset="100%"/>
        </linearGradient>
    </defs>
    <g fill-rule="nonzero" fill="none">
        <rect fill="#F2F4F7" width="60" height="60" rx="14"/>
        <path d="M30 29c3.13 0 6.062.448 8.58 1.229l.621.202C43.893 32.033 47 34.824 47 38s-3.107 5.967-7.799 7.57l-.62.201C36.06 46.552 33.13 47 30 47s-6.062-.448-8.58-1.229l-.621-.202C16.107 43.967 13 41.176 13 38s3.107-5.967 7.799-7.57l.62-.201C23.94 29.448 26.87 29 30 29zm0 3c-7.95 0-14 3.202-14 6s6.05 6 14 6 14-3.202 14-6-6.05-6-14-6z" fill="url(#a)"/>
        <path d="M30 25c-7.95 0-14 3.202-14 6s6.05 6 14 6 14-3.202 14-6-6.05-6-14-6z" fill="#F2F4F7"/>
        <path d="M30 21c3.13 0 6.062.448 8.58 1.229l.621.202C43.893 24.033 47 26.824 47 30s-3.107 5.967-7.799 7.57l-.62.201C36.06 38.552 33.13 39 30 39s-6.062-.448-8.58-1.229l-.621-.202C16.107 35.967 13 33.176 13 30s3.107-5.967 7.799-7.57l.62-.201C23.94 21.448 26.87 21 30 21zm0 3c-7.95 0-14 3.202-14 6s6.05 6 14 6 14-3.202 14-6-6.05-6-14-6z" fill="url(#a)"/>
        <path d="M30 16c-7.95 0-14 3.202-14 6s6.05 6 14 6 14-3.202 14-6-6.05-6-14-6z" fill="#F2F4F7"/>
        <path d="M30 13c3.13 0 6.062.448 8.58 1.229l.621.202C43.893 16.033 47 18.824 47 22s-3.107 5.967-7.799 7.57l-.62.201C36.06 30.552 33.13 31 30 31s-6.062-.448-8.58-1.229l-.621-.202C16.107 27.967 13 25.176 13 22s3.107-5.967 7.799-7.57l.62-.201C23.94 13.448 26.87 13 30 13zm0 3c-7.95 0-14 3.202-14 6s6.05 6 14 6 14-3.202 14-6-6.05-6-14-6z" fill="url(#a)"/>
        <path d="m28.388 26 .64-3.185h1.192L30.859 26h1.579l.897-3.185h1.644v-1.096H33.64l.296-1.052h1.042V19.57h-.731l.419-1.488h-1.681l-.333 1.488h-1.848l-.3-1.488h-1.746l-.29 1.488H26.69l-.328-1.488h-1.756l.419 1.488h-.736v1.096h1.047l.301 1.052H24.29v1.096h1.66L26.852 26h1.536zm3.781-4.28h-.923l-.215-1.053h1.375l-.237 1.052zm-4.114 0h-.891l-.231-1.053h1.326l-.204 1.052zm1.945 0h-.752l.209-1.053h.333l.21 1.052zm1.686 2.158-.22-1.063h.456l-.236 1.063zm-4.05 0-.236-1.063h.44l-.204 1.063z" fill="#0D63E2"/>
    </g>
</svg>
