<svg width="60" height="60" xmlns="http://www.w3.org/2000/svg">
    <defs>
        <linearGradient x1="71.306%" y1="-20.323%" x2="30.323%" y2="106.055%" id="a">
            <stop stop-color="#3E8AFA" offset="0%"/>
            <stop stop-color="#055CDE" offset="100%"/>
        </linearGradient>
        <linearGradient x1="-26.705%" y1="26.66%" x2="63.472%" y2="85.99%" id="b">
            <stop stop-color="#055CDE" offset="0%"/>
            <stop stop-color="#3E8AFA" offset="100%"/>
        </linearGradient>
        <linearGradient x1="45.351%" y1="0%" x2="100.961%" y2="92.757%" id="c">
            <stop stop-color="#055CDE" offset="0%"/>
            <stop stop-color="#3E8AFA" offset="100%"/>
        </linearGradient>
    </defs>
    <g fill="none" fill-rule="evenodd">
        <rect fill="#F2F4F7" fill-rule="nonzero" width="60" height="60" rx="14"/>
        <path d="M23.348 4.808a4.677 4.677 0 0 1 3.343 1.432 4.687 4.687 0 0 1 1.333 3.307 4.68 4.68 0 0 1-1.381 3.306L13.189 26.307c-.17.17-.394.292-.63.343l-6.21 1.346a1.265 1.265 0 0 1-1.168-.343 1.266 1.266 0 0 1-.344-1.168l1.346-6.212c.051-.235.173-.459.343-.63L19.98 6.19a4.68 4.68 0 0 1 3.333-1.382zM8.173 23.088l-.434 2.006 2.006-.434-1.572-1.572zM23.365 7.351a2.156 2.156 0 0 0-1.588.636L9.222 20.542l3.068 3.07 12.556-12.556c.82-.82.853-2.134.075-2.99a2.153 2.153 0 0 0-1.556-.715z" transform="rotate(135 29.26 31.262)" fill="url(#a)"/>
        <path d="M34 19.875a1.5 1.5 0 0 1 .144 2.994l-.144.006H21a1.5 1.5 0 0 1-.144-2.993l.144-.007h13zM34 25.875a1.5 1.5 0 0 1 .144 2.994l-.144.006H21a1.5 1.5 0 0 1-.144-2.993l.144-.007h13zM34 31.875a1.5 1.5 0 0 1 .144 2.994l-.144.006H21a1.5 1.5 0 0 1-.144-2.993l.144-.007h13zM34 37.875a1.5 1.5 0 0 1 .144 2.994l-.144.006H21a1.5 1.5 0 0 1-.144-2.993l.144-.007h13z" fill="url(#b)" fill-rule="nonzero"/>
        <path d="M37 12.5a4.5 4.5 0 0 1 4.495 4.288L41.5 17v26a4.5 4.5 0 0 1-4.288 4.495L37 47.5H11.704a4.205 4.205 0 0 1-4.199-3.995l-.005-.21V33.249a4.5 4.5 0 0 1 4.288-4.496l.212-.004.908-.001V17a4.5 4.5 0 0 1 4.289-4.495l.212-.005H37zm0 3H17.409a1.5 1.5 0 0 0-1.493 1.356l-.007.144v26.296c0 .351-.043.693-.125 1.02l-.051.183L37 44.5a1.5 1.5 0 0 0 1.493-1.356L38.5 43V17a1.5 1.5 0 0 0-1.356-1.493L37 15.5zM12.908 31.747H12a1.5 1.5 0 0 0-1.493 1.356l-.007.145v10.048a1.204 1.204 0 0 0 2.403.123l.006-.123-.001-11.549z" fill="url(#c)" fill-rule="nonzero"/>
    </g>
</svg>
