<svg width="60" height="60" xmlns="http://www.w3.org/2000/svg">
    <defs>
        <linearGradient x1="41.679%" y1="76.453%" x2="52.4%" y2="100%" id="a">
            <stop stop-color="#055CDE" offset="0%"/>
            <stop stop-color="#3E8AFA" offset="100%"/>
        </linearGradient>
        <linearGradient x1="4.441%" y1="7.479%" x2="81.845%" y2="100%" id="b">
            <stop stop-color="#055CDE" offset="0%"/>
            <stop stop-color="#3E8AFA" offset="100%"/>
        </linearGradient>
        <linearGradient x1="-8.398%" y1="32.789%" x2="118.771%" y2="197.66%" id="c">
            <stop stop-color="#055CDE" offset="0%"/>
            <stop stop-color="#055CDE" offset="0%"/>
            <stop stop-color="#3E8AFA" offset="100%"/>
        </linearGradient>
        <linearGradient x1="-8.398%" y1="46.063%" x2="118.771%" y2="83.775%" id="d">
            <stop stop-color="#055CDE" offset="0%"/>
            <stop stop-color="#3E8AFA" offset="100%"/>
        </linearGradient>
    </defs>
    <g fill-rule="nonzero" fill="none">
        <rect width="60" height="60" rx="14" fill="#F2F4F7"/>
        <path d="M39.5 11v21.77a4.73 4.73 0 0 1-4.514 4.725l-.217.005H32v-3h2.77a1.73 1.73 0 0 0 1.724-1.581l.006-.15V25H33v-3h3.5V11h3z" fill="url(#a)" transform="translate(10 10)"/>
        <path d="M36 0a4 4 0 0 1 3.995 3.8L40 4v5.292a2.953 2.953 0 0 1-2.78 2.948l-.173.005a2.953 2.953 0 0 0-2.948 2.78l-.005.173V36a4 4 0 0 1-3.8 3.995l-.2.005H4a4 4 0 0 1-3.995-3.8L0 36V4A4 4 0 0 1 3.8.005L4 0h32zm0 3H4a1 1 0 0 0-.993.883L3 4v32a1 1 0 0 0 .883.993L4 37h26.094a1 1 0 0 0 .994-.883l.006-.117V15.198a5.953 5.953 0 0 1 5.73-5.95L37 9.246V4a1 1 0 0 0-.883-.993L36 3z" fill="url(#b)" transform="translate(10 10)"/>
        <g>
            <path d="M11.5 0a5.5 5.5 0 1 1 0 11 5.5 5.5 0 0 1 0-11zm0 3a2.5 2.5 0 1 0 0 5 2.5 2.5 0 0 0 0-5z" fill="url(#c)" transform="translate(16 19)"/>
            <path d="M16.18 12c3.76 0 6.82 3.263 6.82 7.273C23 21.328 21.431 23 19.504 23H3.496C1.57 23 0 21.328 0 19.273 0 15.263 3.06 12 6.82 12h9.36zm0 3H6.82C4.76 15 3 16.878 3 19.273c0 .4.223.673.434.72l.062.007h16.008c.226 0 .496-.288.496-.727 0-2.323-1.656-4.159-3.633-4.268L16.181 15z" fill="url(#d)" transform="translate(16 19)"/>
        </g>
    </g>
</svg>
