<svg width="60" height="60" xmlns="http://www.w3.org/2000/svg">
    <defs>
        <linearGradient x1="5.105%" y1="24.242%" x2="95.74%" y2="77.824%" id="a">
            <stop stop-color="#055CDE" offset="0%"/>
            <stop stop-color="#3E8AFA" offset="100%"/>
        </linearGradient>
        <linearGradient x1="26.67%" y1="15.572%" x2="68.22%" y2="105.709%" id="b">
            <stop stop-color="#055CDE" offset="0%"/>
            <stop stop-color="#3E8AFA" offset="100%"/>
        </linearGradient>
    </defs>
    <g fill="none" fill-rule="evenodd">
        <rect fill="#F2F4F7" fill-rule="nonzero" width="60" height="60" rx="14"/>
        <path d="M30.333 7.59A3.667 3.667 0 0 1 34 11.258v19.576a3.667 3.667 0 0 1-3.667 3.667H3.667A3.667 3.667 0 0 1 0 30.833V11.257a3.667 3.667 0 0 1 3.667-3.666h26.666zM31 28.537H3v2.297c0 .335.247.612.568.66l.099.007h26.666a.667.667 0 0 0 .66-.568l.007-.099v-2.297zm-.667-17.945H3.667a.667.667 0 0 0-.66.568L3 11.257v14.279h28V11.257a.667.667 0 0 0-.568-.66l-.099-.006z" fill="url(#a)" fill-rule="nonzero" transform="translate(13 12.5)"/>
        <path d="M24.333 26.956v-7.29a5.667 5.667 0 0 1 11.334 0v7.29" stroke="#F2F4F7" stroke-width="5"/>
        <path d="M17 0a7.167 7.167 0 0 1 7.163 6.925l.004.242v5.183a2.468 2.468 0 0 1 1.133 2.064c0 1.376-1.154 2.492-2.576 2.492-1.423 0-2.576-1.116-2.576-2.492 0-.81.4-1.53 1.018-1.984V7.167a4.167 4.167 0 0 0-8.328-.208l-.005.208.001 5.352c.553.457.903 1.136.903 1.895 0 1.376-1.153 2.492-2.575 2.492-1.423 0-2.576-1.116-2.576-2.492 0-.906.5-1.699 1.247-2.135V7.167A7.167 7.167 0 0 1 17 0z" fill="url(#b)" fill-rule="nonzero" transform="translate(13 12.5)"/>
    </g>
</svg>
