<svg width="60" height="60" xmlns="http://www.w3.org/2000/svg">
    <defs>
        <linearGradient x1="10.583%" y1="10.716%" x2="78.776%" y2="97.029%" id="a">
            <stop stop-color="#055CDE" offset="0%"/>
            <stop stop-color="#3E8AFA" offset="100%"/>
        </linearGradient>
        <linearGradient x1="5.093%" y1="19.548%" x2="96.722%" y2="94.879%" id="b">
            <stop stop-color="#055CDE" offset="0%"/>
            <stop stop-color="#3E8AFA" offset="100%"/>
            <stop stop-color="#3E8AFA" offset="100%"/>
        </linearGradient>
        <linearGradient x1="11.245%" y1="18.315%" x2="89.022%" y2="88.348%" id="c">
            <stop stop-color="#055CDE" offset="0%"/>
            <stop stop-color="#3E8AFA" offset="100%"/>
        </linearGradient>
        <linearGradient x1="50%" y1="36.814%" x2="29.62%" y2="106.713%" id="d">
            <stop stop-color="#055CDE" offset="0%"/>
            <stop stop-color="#3E8AFA" offset="100%"/>
        </linearGradient>
        <linearGradient x1="37.194%" y1="8.644%" x2="59.351%" y2="64.645%" id="e">
            <stop stop-color="#3E8AFA" offset="0%"/>
            <stop stop-color="#055CDE" offset="100%"/>
        </linearGradient>
        <linearGradient x1="22.44%" y1="8.644%" x2="87.145%" y2="84.636%" id="f">
            <stop stop-color="#055CDE" offset="0%"/>
            <stop stop-color="#3E8AFA" offset="100%"/>
        </linearGradient>
        <linearGradient x1="9.748%" y1="19.912%" x2="81.125%" y2="86.653%" id="g">
            <stop stop-color="#055CDE" offset="0%"/>
            <stop stop-color="#3E8AFA" offset="100%"/>
        </linearGradient>
    </defs>
    <g fill-rule="nonzero" fill="none">
        <rect fill="#F2F4F7" width="60" height="60" rx="14"/>
        <path d="M17 8a4 4 0 0 1 3.995 3.8L21 12v13a4 4 0 0 1-3.8 3.995L17 29H4a4 4 0 0 1-3.995-3.8L0 25V12a4 4 0 0 1 3.8-3.995L4 8h13zm0 3h-5v4H9v-4H4a1 1 0 0 0-.993.883L3 12v13a1 1 0 0 0 .883.993L4 26h13a1 1 0 0 0 .993-.883L18 25V12a1 1 0 0 0-.883-.993L17 11z" fill="url(#a)" transform="translate(8 19)"/>
        <path d="M48 22H27a1 1 0 0 0-.993.883L26 23v21a1 1 0 0 0 .883.993L27 45h21a1 1 0 0 0 .993-.883L49 44V23a1 1 0 0 0-.883-.993L48 22z" fill="#F2F4F7"/>
        <path d="M40 0a4 4 0 0 1 3.995 3.8L44 4v21a4 4 0 0 1-3.8 3.995L40 29H19a4 4 0 0 1-3.995-3.8L15 25V4A4 4 0 0 1 18.8.005L19 0h21zm0 3H19a1 1 0 0 0-.993.883L18 4v21a1 1 0 0 0 .883.993L19 26h21a1 1 0 0 0 .993-.883L41 25V4a1 1 0 0 0-.883-.993L40 3z" fill="url(#b)" transform="translate(8 19)"/>
        <path d="M39 21.863V32h10.03v3H39v10.25h-3V35H25.98v-3H36V21.863h3z" fill="url(#c)"/>
        <path fill="url(#d)" d="m36.844 15.732 2.558 1.567-5.907 9.854-2.558-1.568z"/>
        <path fill="url(#e)" transform="rotate(180 40 21.212)" d="m35.98 16.689 2.666-1.375 5.375 10.422-2.667 1.375z"/>
        <path d="M33.9 12a4.5 4.5 0 1 1 0 9 4.5 4.5 0 0 1 0-9zm0 3a1.5 1.5 0 1 0 0 3 1.5 1.5 0 0 0 0-3z" fill="url(#f)"/>
        <path d="M41.1 12a4.5 4.5 0 1 1 0 9 4.5 4.5 0 0 1 0-9zm0 3a1.5 1.5 0 1 0 0 3 1.5 1.5 0 0 0 0-3z" fill="url(#g)"/>
    </g>
</svg>
