<svg width="60" height="60" xmlns="http://www.w3.org/2000/svg">
    <defs>
        <linearGradient x1="-8.398%" y1="32.789%" x2="118.771%" y2="197.66%" id="a">
            <stop stop-color="#055CDE" offset="0%"/>
            <stop stop-color="#055CDE" offset="0%"/>
            <stop stop-color="#3E8AFA" offset="100%"/>
        </linearGradient>
        <linearGradient x1="-8.398%" y1="45.97%" x2="118.771%" y2="84.572%" id="b">
            <stop stop-color="#055CDE" offset="0%"/>
            <stop stop-color="#3E8AFA" offset="100%"/>
        </linearGradient>
        <linearGradient x1="-5.78%" y1="51.247%" x2="50%" y2="56.374%" id="c">
            <stop stop-color="#055CDE" offset="0%"/>
            <stop stop-color="#3E8AFA" offset="100%"/>
        </linearGradient>
        <linearGradient x1="-5.78%" y1="51.725%" x2="50%" y2="58.823%" id="d">
            <stop stop-color="#055CDE" offset="0%"/>
            <stop stop-color="#3E8AFA" offset="100%"/>
        </linearGradient>
        <linearGradient x1="-5.78%" y1="52.95%" x2="50%" y2="65.087%" id="e">
            <stop stop-color="#055CDE" offset="0%"/>
            <stop stop-color="#3E8AFA" offset="100%"/>
        </linearGradient>
    </defs>
    <g fill="none" fill-rule="evenodd">
        <rect fill="#F2F4F7" fill-rule="nonzero" width="60" height="60" rx="14"/>
        <g fill-rule="nonzero">
            <path d="M15.5 0a7.5 7.5 0 1 1 0 15 7.5 7.5 0 0 1 0-15zm0 3a4.5 4.5 0 1 0 0 9 4.5 4.5 0 0 0 0-9z" fill="url(#a)" transform="translate(7 14)"/>
            <path d="M21.809 17C26.877 17 31 21.449 31 26.917 31 29.72 28.885 32 26.287 32H4.713C2.115 32 0 29.72 0 26.917 0 21.45 4.123 17 9.193 17h12.616zm0 3H9.193C5.833 20 3 23.057 3 26.917c0 1.138.747 1.998 1.586 2.077l.127.006h21.574c.89 0 1.713-.888 1.713-2.083 0-3.776-2.711-6.784-5.973-6.913L21.809 20z" fill="url(#b)" transform="translate(7 14)"/>
        </g>
        <rect fill="url(#c)" x="34" y="14" width="19" height="3" rx="1.5"/>
        <rect fill="url(#d)" x="36.85" y="20" width="16.15" height="3" rx="1.5"/>
        <rect fill="url(#c)" x="34" y="26" width="19" height="3" rx="1.5"/>
        <rect fill="url(#e)" x="40.65" y="32" width="12.35" height="3" rx="1.5"/>
    </g>
</svg>
