<svg width="60" height="60" xmlns="http://www.w3.org/2000/svg">
    <defs>
        <linearGradient x1="38.61%" y1="8.644%" x2="78.936%" y2="100%" id="a">
            <stop stop-color="#055CDE" offset="0%"/>
            <stop stop-color="#3E8AFA" offset="100%"/>
        </linearGradient>
        <linearGradient x1="7.211%" y1="21.788%" x2="93.927%" y2="82.522%" id="b">
            <stop stop-color="#055CDE" offset="0%"/>
            <stop stop-color="#3E8AFA" offset="100%"/>
        </linearGradient>
        <linearGradient x1="22.44%" y1="8.644%" x2="100%" y2="100%" id="c">
            <stop stop-color="#055CDE" offset="0%"/>
            <stop stop-color="#3E8AFA" offset="100%"/>
        </linearGradient>
        <linearGradient x1="22.44%" y1="44.673%" x2="72.767%" y2="56.441%" id="d">
            <stop stop-color="#055CDE" offset="0%"/>
            <stop stop-color="#3E8AFA" offset="100%"/>
        </linearGradient>
    </defs>
    <g fill="none" fill-rule="evenodd">
        <rect fill="#F2F4F7" fill-rule="nonzero" width="60" height="60" rx="14"/>
        <path d="M28.347 34.007a3 3 0 0 1 3 3v11h-9v-11a3 3 0 0 1 3-3h3zm0 2h-3a1 1 0 0 0-.993.883l-.007.117v8.999h5v-8.999a1 1 0 0 0-.883-.993l-.117-.007z" fill="url(#a)" fill-rule="nonzero"/>
        <path d="M46 16.375a4 4 0 0 1 4 4V45a4 4 0 0 1-4 4H17a4 4 0 0 1-4-4V20.375a4 4 0 0 1 4-4h29zm0 3H17a1 1 0 0 0-.993.883l-.007.117V45a1 1 0 0 0 .883.993L17 46h29a1 1 0 0 0 .993-.883L47 45V20.375a1 1 0 0 0-.883-.993L46 19.375z" fill="url(#b)" fill-rule="nonzero"/>
        <path d="M41 29a2 2 0 0 1 2 2v3a2 2 0 0 1-2 2h-3a2 2 0 0 1-2-2v-3a2 2 0 0 1 2-2h3zm0 2h-3v3h3v-3z" fill="url(#c)" fill-rule="nonzero"/>
        <path fill="#F2F4F7" d="m13 20 5.985-5.766h28.603l1.168.766v5z"/>
        <g fill="#F2F4F7">
            <path d="M12 21v1.562a3.438 3.438 0 1 0 6.876 0V21M19.531 21v1.562a3.438 3.438 0 1 0 6.876 0V21M27.062 21v1.562a3.438 3.438 0 1 0 6.876 0V21M34.593 21v1.562a3.438 3.438 0 1 0 6.876 0V21M42.124 21v1.562a3.438 3.438 0 1 0 6.876 0V21"/>
        </g>
        <path d="M50 22.562a4.438 4.438 0 0 1-8.204 2.35A4.434 4.434 0 0 1 38.031 27a4.435 4.435 0 0 1-3.766-2.088A4.434 4.434 0 0 1 30.5 27a4.435 4.435 0 0 1-3.766-2.088A4.434 4.434 0 0 1 22.97 27a4.435 4.435 0 0 1-3.766-2.088 4.438 4.438 0 0 1-8.198-2.14L11 22.56l-.001-2.038c-.023-.24.02-.526.11-.647l.35-.326 5.568-5.186a5 5 0 0 1 3.179-1.359L20.46 13H47a3 3 0 0 1 2.995 2.824L50 16v6.562zM35.593 21v1.562a2.438 2.438 0 0 0 4.87.16l.006-.16V21h-4.876zm-10.186 0h-4.876v1.562a2.438 2.438 0 0 0 4.87.16l.006-.16V21zm7.531 0h-4.876v1.562a2.438 2.438 0 0 0 4.87.16l.006-.16V21zm-15.062 0H13v1.562a2.438 2.438 0 0 0 4.87.16l.006-.16V21zM47 16H20.46a2 2 0 0 0-1.245.435l-.128.11L17.546 18h29.453L47 16zm-3.876 6.562a2.438 2.438 0 0 0 4.87.16l.006-.16V21h-4.876v1.562z" fill="url(#d)" fill-rule="nonzero"/>
    </g>
</svg>
