<svg width="60" height="60" xmlns="http://www.w3.org/2000/svg">
    <defs>
        <linearGradient x1="11.777%" y1="0%" x2="88.223%" y2="100%" id="a">
            <stop stop-color="#055CDE" offset="0%"/>
            <stop stop-color="#3E8AFA" offset="100%"/>
        </linearGradient>
        <linearGradient x1="11.113%" y1="18.558%" x2="93.484%" y2="99.151%" id="b">
            <stop stop-color="#055CDE" offset="0%"/>
            <stop stop-color="#3E8AFA" offset="100%"/>
        </linearGradient>
    </defs>
    <g fill-rule="nonzero" fill="none">
        <rect fill="#F2F4F7" width="60" height="60" rx="14"/>
        <path d="M14.556 30.126a1.5 1.5 0 0 1 2.007.108l.103.114 4.723 5.834a1.5 1.5 0 0 1-2.229 2.002l-.102-.114-4.724-5.834a1.5 1.5 0 0 1 .222-2.11zM7.556 30.126a1.5 1.5 0 0 1 2.007.108l.103.114 4.723 5.834a1.5 1.5 0 0 1-2.229 2.002l-.102-.114-4.724-5.834a1.5 1.5 0 0 1 .222-2.11zM.556 30.126a1.5 1.5 0 0 1 2.007.108l.103.114 4.723 5.834a1.5 1.5 0 0 1-2.229 2.002l-.102-.114-4.724-5.834a1.5 1.5 0 0 1 .222-2.11z" fill="url(#a)" transform="translate(11.276 10.374)"/>
        <path d="M16.631.008 16.407 0 11.766 0A4.566 4.566 0 0 0 8.64 1.24l-.186.186c-.826.893-1.253 2.018-1.23 3.177l.014.263a31.123 31.123 0 0 0 4.598 13.292l.312.486a31.015 31.015 0 0 0 9.098 9.171l.489.314a31.845 31.845 0 0 0 13.175 4.778l.6.07a4.591 4.591 0 0 0 3.272-.953l.203-.17c.905-.82 1.43-1.906 1.508-3.066l.01-.264V23.96c.055-2.16-1.493-4.07-3.652-4.498l-.217-.037a18.452 18.452 0 0 1-3.528-.812l-.5-.177a4.563 4.563 0 0 0-4.532.81l-.192.174-1.152 1.137-.297-.189a22.726 22.726 0 0 1-6.546-6.477l-.163-.253 1.09-1.076a4.491 4.491 0 0 0 1.132-4.483l-.082-.245a17.835 17.835 0 0 1-.925-3.445l-.077-.52c-.304-2.124-2.08-3.737-4.23-3.862zM11.768 3h4.587l.146.005c.69.04 1.29.586 1.392 1.297l.081.548c.224 1.378.58 2.711 1.067 4l.05.15c.143.474 0 1.043-.393 1.436l-2.758 2.727.847 1.438a25.748 25.748 0 0 0 9.438 9.147l.986.554 2.737-2.707.11-.099c.39-.33.992-.437 1.526-.239l.543.192c1.334.45 2.688.764 4.064.943l.119.021c.692.138 1.212.78 1.194 1.51v4.554l-.007.164a1.477 1.477 0 0 1-.488.956l-.123.102c-.27.212-.668.33-1.068.295l-.544-.065a28.83 28.83 0 0 1-11.92-4.325l-.476-.306a27.999 27.999 0 0 1-8.206-8.275l-.304-.473a28.055 28.055 0 0 1-4.14-11.928l-.006-.134a1.47 1.47 0 0 1 .4-.989l.113-.113A1.544 1.544 0 0 1 11.768 3z" fill="url(#b)" transform="translate(11.276 10.374)"/>
    </g>
</svg>
