<svg width="50" height="10" xmlns="http://www.w3.org/2000/svg">
    <path d="M14.098 0c2.723 0 5.233 1.99 5.233 4.825C19.33 7.86 17.135 10 14.098 10c-3.036 0-5.232-2.14-5.232-5.175C8.866 1.99 11.376 0 14.098 0zm19.034 0c2.724 0 5.232 1.99 5.232 4.825C38.364 7.86 36.17 10 33.132 10 30.097 10 27.9 7.86 27.9 4.825 27.9 1.99 30.411 0 33.132 0zM2.46.311V4.18h.024L5.46.311h3.048l-3.763 4.44L8.847 9.69H5.658L2.484 5.622H2.46V9.69H0V.31h2.46zm21.503 0v7.314h2.947V9.69h-5.407V.31h2.46zm19.048 0 4.504 5.733h.026V.311H50V9.69h-2.459l-4.504-5.747h-.026V9.69h-2.458V.31h2.458zM14.098 2.363c-1.468 0-2.674 1.182-2.674 2.475 0 1.617 1.206 2.8 2.674 2.8s2.673-1.183 2.673-2.8c0-1.293-1.205-2.475-2.673-2.475zm19.034 0c-1.468 0-2.672 1.182-2.672 2.475 0 1.617 1.204 2.8 2.672 2.8 1.47 0 2.674-1.183 2.674-2.8 0-1.293-1.204-2.475-2.674-2.475z" fill="#BEBEBE" fill-rule="evenodd"/>
</svg>
